<?xml version="1.0" encoding="UTF-8" standalone="no"?>
<svg
   xmlns:dc="http://purl.org/dc/elements/1.1/"
   xmlns:cc="http://creativecommons.org/ns#"
   xmlns:rdf="http://www.w3.org/1999/02/22-rdf-syntax-ns#"
   xmlns:svg="http://www.w3.org/2000/svg"
   xmlns="http://www.w3.org/2000/svg"
   xmlns:sodipodi="http://sodipodi.sourceforge.net/DTD/sodipodi-0.dtd"
   xmlns:inkscape="http://www.inkscape.org/namespaces/inkscape"
   width="210mm"
   height="297mm"
   viewBox="0 0 210 297"
   version="1.1"
   id="svg8"
   inkscape:export-filename="C:\Users\hp\Documents\Laghzeel_portfolio\Public\180.png"
   inkscape:export-xdpi="375.9682"
   inkscape:export-ydpi="375.9682"
   inkscape:version="1.0.1 (3bc2e813f5, 2020-09-07)"
   sodipodi:docname="dessin.svg">
  <defs
     id="defs2" />
  <sodipodi:namedview
     id="base"
     pagecolor="#ffffff"
     bordercolor="#666666"
     borderopacity="1.0"
     inkscape:pageopacity="0.0"
     inkscape:pageshadow="2"
     inkscape:zoom="0.35"
     inkscape:cx="-218.57143"
     inkscape:cy="400.08896"
     inkscape:document-units="mm"
     inkscape:current-layer="layer1"
     inkscape:document-rotation="0"
     showgrid="false"
     inkscape:window-width="1366"
     inkscape:window-height="728"
     inkscape:window-x="0"
     inkscape:window-y="0"
     inkscape:window-maximized="0" />
  <metadata
     id="metadata5">
    <rdf:RDF>
      <cc:Work
         rdf:about="">
        <dc:format>image/svg+xml</dc:format>
        <dc:type
           rdf:resource="http://purl.org/dc/dcmitype/StillImage" />
        <dc:title></dc:title>
      </cc:Work>
    </rdf:RDF>
  </metadata>
  <g
     inkscape:label="Calque 1"
     inkscape:groupmode="layer"
     id="layer1">
    <path
       sodipodi:type="spiral"
       style="fill:#ff0000;fill-rule:evenodd;stroke:#000000;stroke-width:0.264583"
       id="path32"
       sodipodi:cx="76.124405"
       sodipodi:cy="80.811302"
       sodipodi:expansion="1"
       sodipodi:revolution="3"
       sodipodi:radius="29.082069"
       sodipodi:argument="-17.435362"
       sodipodi:t0="0.14497"
       d="m 73.865031,77.251791 c 1.946818,-2.537611 5.772267,-2.05609 7.865004,0.0014 3.186666,3.13296 2.398392,8.369604 -0.748737,11.209883 -4.279538,3.862278 -10.984349,2.750651 -14.554761,-1.496096 -4.550065,-5.411973 -3.108033,-13.60704 2.243455,-17.89964 6.537886,-5.244248 16.234083,-3.468335 21.244519,2.990815 5.942171,7.660284 3.830443,18.863783 -3.738174,24.589398 -8.780579,6.642462 -21.49523,4.193742 -27.934277,-4.485534 -7.344332,-9.899516 -4.557852,-24.127889 5.232893,-31.279156 11.017529,-8.047323 26.761423,-4.922557 34.624035,5.980253 8.751132,12.134883 5.287702,29.395609 -6.727612,37.968909 -3.199357,2.28285 -6.867733,3.88787 -10.711245,4.70549"
       transform="matrix(0.24181852,0,0,0.1748854,77.155728,119.43457)"
       inkscape:export-xdpi="68.366486"
       inkscape:export-ydpi="68.366486" />
    <path
       sodipodi:type="spiral"
       style="fill:#000000;fill-rule:evenodd;stroke:#000000;stroke-width:0.264583"
       id="path34"
       sodipodi:cx="77.863098"
       sodipodi:cy="133.80356"
       sodipodi:expansion="1"
       sodipodi:revolution="3"
       sodipodi:radius="29.082069"
       sodipodi:argument="-17.435362"
       sodipodi:t0="0.14497"
       d="m 75.603724,130.24405 c 1.946819,-2.53761 5.772267,-2.05609 7.865004,0.001 3.186666,3.13296 2.398392,8.36961 -0.748736,11.20989 -4.279539,3.86228 -10.98435,2.75065 -14.554762,-1.4961 -4.550065,-5.41197 -3.108033,-13.60704 2.243455,-17.89964 6.537887,-5.24425 16.234083,-3.46833 21.24452,2.99082 5.94217,7.66028 3.830442,18.86378 -3.738175,24.58939 -8.780579,6.64246 -21.49523,4.19374 -27.934277,-4.48553 -7.344332,-9.89952 -4.557852,-24.12789 5.232894,-31.27916 11.017528,-8.04732 26.761422,-4.92255 34.624034,5.98026 8.751129,12.13488 5.287699,29.39561 -6.727612,37.96891 -3.199357,2.28284 -6.867733,3.88786 -10.711245,4.70549"
       transform="matrix(-0.24204705,-0.0193095,0.02638184,-0.17716003,112.3174,168.97593)" />
  </g>
</svg>
