<?xml version="1.0" encoding="UTF-8" standalone="no"?>
<svg
   xmlns:dc="http://purl.org/dc/elements/1.1/"
   xmlns:cc="http://creativecommons.org/ns#"
   xmlns:rdf="http://www.w3.org/1999/02/22-rdf-syntax-ns#"
   xmlns:svg="http://www.w3.org/2000/svg"
   xmlns="http://www.w3.org/2000/svg"
   xmlns:xlink="http://www.w3.org/1999/xlink"
   xmlns:sodipodi="http://sodipodi.sourceforge.net/DTD/sodipodi-0.dtd"
   xmlns:inkscape="http://www.inkscape.org/namespaces/inkscape"
   version="1.1"
   id="Layer_1"
   x="0px"
   y="0px"
   width="600px"
   height="138.596px"
   viewBox="0 0 600 138.596"
   enable-background="new 0 0 600 138.596"
   xml:space="preserve"
   sodipodi:docname="logo.svg"
   inkscape:version="1.0.1 (3bc2e813f5, 2020-09-07)"
   inkscape:export-filename="C:\Users\hp\Documents\Laghzeel_portfolio\Public\images\logo.png"
   inkscape:export-xdpi="96"
   inkscape:export-ydpi="96"><metadata
   id="metadata9"><rdf:RDF><cc:Work
       rdf:about=""><dc:format>image/svg+xml</dc:format><dc:type
         rdf:resource="http://purl.org/dc/dcmitype/StillImage" /><dc:title></dc:title></cc:Work></rdf:RDF></metadata><defs
   id="defs7"><rect
     x="-323.90746"
     y="-1362.982"
     width="170.17995"
     height="87.917738"
     id="rect878" /><linearGradient
     inkscape:collect="always"
     id="linearGradient868"><stop
       style="stop-color:#000000;stop-opacity:1;"
       offset="0"
       id="stop864" /><stop
       style="stop-color:#000000;stop-opacity:0;"
       offset="1"
       id="stop866" /></linearGradient><linearGradient
     inkscape:collect="always"
     xlink:href="#linearGradient868"
     id="linearGradient870"
     x1="-380.76015"
     y1="-1629.9707"
     x2="-365.80908"
     y2="-1629.9707"
     gradientUnits="userSpaceOnUse" /></defs><sodipodi:namedview
   pagecolor="#ffffff"
   bordercolor="#666666"
   borderopacity="1"
   objecttolerance="10"
   gridtolerance="10"
   guidetolerance="10"
   inkscape:pageopacity="0"
   inkscape:pageshadow="2"
   inkscape:window-width="1366"
   inkscape:window-height="705"
   id="namedview5"
   showgrid="false"
   inkscape:zoom="1.945"
   inkscape:cx="300.78569"
   inkscape:cy="65.623863"
   inkscape:window-x="-8"
   inkscape:window-y="-8"
   inkscape:window-maximized="1"
   inkscape:current-layer="Layer_1" />

<path
   sodipodi:type="spiral"
   style="fill:#d40000;fill-rule:evenodd;stroke:#000000"
   id="path33"
   sodipodi:cx="-437.58865"
   sodipodi:cy="-1311.054"
   sodipodi:expansion="1"
   sodipodi:revolution="3.0039799"
   sodipodi:radius="11.228961"
   sodipodi:argument="-19.152863"
   sodipodi:t0="0"
   d="m -437.58865,-1311.054 c 0.53659,-0.1679 0.4911,0.6405 0.27911,0.8919 -0.57448,0.6812 -1.62661,0.2885 -2.06281,-0.3336 -0.78026,-1.1129 -0.15397,-2.6148 0.94635,-3.2338 1.61475,-0.9084 3.61897,-0.022 4.40475,1.5591 1.04732,2.1078 -0.10748,4.6291 -2.17182,5.5757 -2.59776,1.1912 -5.64216,-0.2364 -6.74669,-2.7846 -1.33773,-3.0861 0.36472,-6.6568 3.39729,-7.9176 3.57378,-1.4858 7.67266,0.4927 9.08862,4.01 1.63478,4.0609 -0.62042,8.6891 -4.62276,10.2596 -4.54771,1.7845 -9.70608,-0.748 -11.43055,-5.2355 -1.93459,-5.0343 0.87542,-10.7234 5.84823,-12.6015 5.52075,-2.0851 11.74098,1.0028 13.77248,6.461 0.0327,0.088 0.0643,0.1759 0.0947,0.2645"
   transform="matrix(8.8165669,1.5601251,-2.0018095,6.871257,1425.5853,9769.8529)" /><path
   sodipodi:type="spiral"
   style="fill:#d40000;fill-rule:evenodd;stroke:#000000"
   id="path35"
   sodipodi:cx="-414.57584"
   sodipodi:cy="-1313.6246"
   sodipodi:expansion="1"
   sodipodi:revolution="3.0039799"
   sodipodi:radius="11.415734"
   sodipodi:argument="-15.868498"
   sodipodi:t0="0"
   d="m -414.57584,-1313.6246 c -0.56425,0.091 -0.40155,-0.7156 -0.15186,-0.9379 0.67664,-0.6024 1.67859,-0.055 2.02753,0.6341 0.62419,1.2328 -0.22331,2.6536 -1.42008,3.1173 -1.75631,0.6804 -3.64497,-0.501 -4.20693,-2.2061 -0.749,-2.2726 0.77778,-4.6426 2.99204,-5.2966 2.78641,-0.823 5.64344,1.054 6.38631,3.778 0.89972,3.2991 -1.32996,6.646 -4.56397,7.476 -3.81118,0.9782 -7.64965,-1.6057 -8.56572,-5.3499 -1.05763,-4.323 1.88125,-8.6541 6.13593,-9.6554 4.83444,-1.1379 9.65893,2.1567 10.7451,6.9218 1.21853,5.3459 -2.43211,10.6643 -7.70787,11.8349 -5.85709,1.2995 -11.66976,-2.7075 -12.9245,-8.4939 -0.0202,-0.093 -0.0392,-0.1864 -0.057,-0.2799"
   transform="matrix(8.8238471,0,0,7.0504448,4051.3636,9324.9822)" /><text
   xml:space="preserve"
   style="font-style:normal;font-weight:normal;font-size:201.509px;line-height:1.25;font-family:sans-serif;mix-blend-mode:lighten;fill:#ffffff;fill-opacity:1;fill-rule:nonzero;stroke:none;stroke-width:5.04001;stroke-miterlimit:4;stroke-dasharray:none;"
   x="-21.711123"
   y="162.88768"
   id="text39"
   transform="scale(1.2931349,0.77331452)"><tspan
     sodipodi:role="line"
     id="tspan37"
     x="-21.711123"
     y="162.88768"
     style="fill:#ffffff;fill-opacity:1;fill-rule:nonzero;stroke-width:5.04001;stroke-miterlimit:4;stroke-dasharray:none;">L </tspan></text><text
   xml:space="preserve"
   style="font-style:normal;font-weight:normal;font-size:167.909px;line-height:1.25;font-family:sans-serif;fill:#ffffff;fill-opacity:1;stroke:none;stroke-width:4.19756;"
   x="421.82318"
   y="135.94632"
   id="text874"
   transform="scale(1.1025134,0.90701847)"><tspan
     sodipodi:role="line"
     id="tspan872"
     x="421.82318"
     y="135.94632"
     style="fill:#ffffff;stroke-width:4.19756;">M</tspan></text><text
   xml:space="preserve"
   id="text876"
   style="fill:black;fill-opacity:1;line-height:1.25;stroke:none;font-family:sans-serif;font-style:normal;font-weight:normal;font-size:40px;white-space:pre;shape-inside:url(#rect878);" /></svg>
